<?xml version="1.0" encoding="utf-8"?>
<!-- Generator: Adobe Illustrator 22.1.0, SVG Export Plug-In . SVG Version: 6.00 Build 0)  -->
<svg version="1.1" id="Artwork" xmlns="http://www.w3.org/2000/svg" xmlns:xlink="http://www.w3.org/1999/xlink" x="0px" y="0px"
	 width="595.3px" height="841.9px" viewBox="0 0 595.3 841.9" style="enable-background:new 0 0 595.3 841.9;" xml:space="preserve"
	>
<style type="text/css">
	.st0{fill:#FFFFFF;}
	.st1{fill:#25b3e8;}
</style>
<title>partner</title>
<path class="st0" d="M392.2,392.3c0.1-0.2,0.1-0.4,0-0.6c-0.9-0.9-3.2-3.2-4-4c-0.2-0.1-0.4-0.1-0.5,0c-0.8,0.9-3.2,3.2-4.1,4.1
	c-0.1,0.2-0.1,0.4,0,0.5c0.8,0.9,3.2,3.2,4,4.1c0.2,0.1,0.4,0.1,0.5,0h0C389,395.5,391.3,393.2,392.2,392.3"/>
<path class="st0" d="M104.6,367.1c0,0,0.3-0.3,0.5-0.2c0.1,0.1,0.1,0.5,0.1,0.5c-0.5,3.4-2.1,15.6-2.9,31.5
	c-0.1,2.6-0.2,5.2-0.3,7.8l0,0.9l0.5-0.7c2.6-3.1,6.6-4.7,10.6-4.5c5.8-0.3,10.8,4,11.4,9.8c0.6,6-1.9,11.8-6.7,15.5
	c-4,2.7-8.7,4.2-13.6,4.3c-5.2,0.1-10.6-0.2-14-3.1c-1.9-1.6-3.5-3.8-3.9-9.8c0-0.5-0.1-1.1-0.1-1.7c0-0.5,0-1.1,0.1-1.6
	c0-0.4,0.1-0.5,0.3-0.5c0.1,0,0.2,0.3,0.3,0.5c0.1,0.4,0.3,0.7,0.5,1c2.9,5.7,12.9,6.6,16.3,6.5c7-0.1,9.9-2.2,12-5.3
	c1.2-1.7,1.7-3.8,1.3-5.8c-0.5-2.8-2.6-4.2-6.1-4.2c-4.9,0-8.9,4-8.9,8.9c0,0.1,0,0.2,0,0.4l0,0.7l0,1.6c0,0.4-0.1,0.5-0.2,0.5
	c-0.2,0-0.4-0.1-0.6-0.2l-6.3-3.7c-0.3-0.1-0.5-0.3-0.7-0.6c-0.2-0.3-0.2-0.6-0.2-0.9c0.1-5.6,0.1-11.9,0.3-15.9
	c0.4-8,1.1-15.8,2-23.4c0.1-0.4,0.2-0.9,0.3-1.3c0.2-0.3,0.5-0.6,0.8-0.9C97.3,373.3,104.6,367.1,104.6,367.1"/>
<path class="st0" d="M379.5,406c1.4-1.2,5.8-4.9,7.5-6.3c0.2-0.2,0.4-0.3,0.4-0.3c0.1,0.1,0.1,0.4,0,0.6c-0.3,5.7-0.4,11.5-0.4,17.1
	v5.8c0.1,2.6,0.6,4,1.3,4.6c1.7,1.1,3.7,1.5,5.7,1l0.4,0c0.1,0,0.4-0.1,0.5,0c0,0.2-0.4,0.4-0.6,0.5l0,0.1c-2,1.1-4.3,1.8-6.6,2
	l-1,0c-1.9-0.1-3.6-0.9-5-2.2l-0.4-0.4c-0.2-0.2-0.4-0.5-0.6-0.7c-1-1.3-1.5-2.9-1.5-4.5c-0.1-2,0-12.9,0.1-16.1
	c0-0.3,0-0.5,0.1-0.8C379.3,406.3,379.4,406.1,379.5,406"/>
<path class="st0" d="M314,423.1c-1.9,1.4-4.3,2.1-6.6,1.7c-2.9-0.4-4.5-1.6-4.5-3.3c0.1-1.8,1.4-2.8,4-2.9c1.9-0.1,4.2,1.2,7.1,4
	l0.3,0.2L314,423.1z M375.6,412.2c-0.6-5.8-5.6-10.1-11.4-9.8c-4-0.2-7.9,1.4-10.6,4.5l-0.5,0.7l0-0.9c0.1-2.6,0.1-5.2,0.3-7.8
	c0.8-15.9,2.5-28.1,2.9-31.5c0,0,0.1-0.4-0.1-0.5c-0.2-0.1-0.5,0.1-0.5,0.2c0,0-7.4,6.2-7.3,6.1c-0.3,0.3-0.6,0.6-0.8,0.9
	c-0.2,0.4-0.3,0.9-0.4,1.3c-0.9,7.6-1.5,15.4-1.9,23.4c-0.2,4-0.3,10.3-0.4,15.9c0,0.3,0.1,0.7,0.3,0.9c0.2,0.2,0.4,0.4,0.7,0.6
	l6.4,3.7c0.2,0.1,0.4,0.2,0.6,0.2c0.1,0,0.2-0.1,0.2-0.5V418l0-0.7c-0.2-4.9,3.6-9.1,8.6-9.3c0.1,0,0.2,0,0.3,0
	c3.5,0,5.6,1.4,6.1,4.2c0.3,2-0.1,4.1-1.3,5.8c-2.2,3.1-5,5.2-12.1,5.3c-3.3,0.1-13.4-0.8-16.2-6.5c-0.2-0.2-0.3-0.5-0.4-0.8
	c-0.1-0.2-0.3-0.6-0.4-0.6c-0.2,0-0.2,0.2-0.2,0.5c-0.1,0.2-0.1,0.5-0.1,0.7c-0.2,1.9-1,3.6-2.4,5c-2.1,1.1-4.4,1.4-6.7,0.9
	c-1.7-0.3-3.5-0.7-5.1-1.2l-0.3-0.1l0.1-0.3c2-5,2.1-10.8,0.2-13.8c-1.9-3.1-5.2-5.1-8.8-5.5c-3.6-0.4-8.9,0.2-11.7,2.4
	c-1.5,1.1-2,3.9-2.2,5.8c-0.1,0.4-0.1,0.8,0.1,0.8c0.1,0.1,0.3-0.1,0.6-0.4c1.7-1.4,3.8-2.4,5.9-2.9c2.2-0.5,4.6-0.2,6.7,0.8
	c2.1,1.1,3.6,3.3,3.8,5.7c0.1,1,0.1,2-0.1,2.9l-0.1,0.5l-0.4-0.4c-4.1-3.9-6.8-5-10.5-4.5c-2.1,0.4-4,1.5-5.4,3.2
	c-0.9,0.9-3.3,4.2-5.5,5.1c-4.4,1.8-23.5,1-26.2-0.7c-1.6-1-1.4-3.5-1.3-4.4v-0.1c0-0.6,0.4-5.9,0.5-8.7c0.3-1.5-0.1-3.1-1.1-4.4
	c-0.9-0.8-2.1-1.2-3.2-1.1c-1.6,0.1-3.2,0.9-4.3,2c-3.6,2.9-6.7,6.4-9.2,10.2c-0.2,0.2-0.3,0.6-0.5,0.6c-0.3,0.1-0.3-0.4-0.3-0.6
	c0-4,0.5-15.1,0.5-15.6c0.8-15.9,2.5-28.2,2.9-31.5l0-0.1c0-0.2,0.1-0.5,0-0.5c-0.2-0.1-0.4,0.1-0.4,0.1c0,0-7.5,6.4-7.5,6.3
	c-0.3,0.3-0.6,0.6-0.8,0.9c-0.2,0.4-0.3,0.9-0.3,1.3l0,0.2c-0.7,5.8-1.6,13.7-1.9,23.2c-0.5,15.1-0.5,22.5-0.3,30.2
	c0.1,2,1.1,2.6,1.7,2.7c0.2,0.1,2,0.5,2.8-0.9c3.4-7,8-13.4,13.6-18.9c0.2-0.3,0.6-0.5,1-0.5c0.4,0.1,0.4,0.5,0.4,1l-0.2,2.5
	c-0.1,1.1-0.1,2.1-0.2,4.5c-0.1,2.4,0.1,8.2,4,10.3c4,2.2,24,1.8,24,1.8c6.4,0.1,7.5-1.2,8.8-2.7c0.6-0.7,1-1.5,1.4-2.4
	c0.9,2.1,2.6,3.8,4.7,4.8c3.8,1.4,8.1,1,11.6-1c1-0.5,1.9-1.2,2.7-2l0.2-0.2l0.2,0.2c1,0.8,2,1.5,3.1,2.1c2.8,1.1,5.8,1.6,8.8,1.5
	c5.6-0.2,7.6-2.7,8-4.3c0.1-0.3,0.2-0.8,0.2-1.2c0.6,1.4,1.5,2.5,2.6,3.5c3.4,2.8,8.8,3.2,14,3.1c4.8-0.1,9.6-1.6,13.6-4.3
	C373.7,424.1,376.2,418.2,375.6,412.2"/>
<path class="st0" d="M232.2,383.4c-3.3-4.8-8-8.5-13.5-10.4c-3.6-1.3-7.4-1.9-11.2-1.9c0,0-5.3-0.1-8.2-0.3
	c-1.4-0.1-2.7-0.6-3.8-1.4c-0.5-0.3-0.6-0.6-0.9-0.6c-0.3,0.1-0.3,0.9-0.4,1.6c-0.4,5.3-1.8,22.8-2,27.1c-0.2,4-0.3,10.4-0.3,16
	c0,0.3,0,0.6,0.2,0.9c0.2,0.2,0.4,0.4,0.7,0.6l6.4,3.7c0.2,0.1,0.4,0.2,0.6,0.1c0.1-0.1,0.2-0.2,0.2-0.7v-1.4l0.1-0.7l0.1-9.4
	l0.1-1.3c0.1-2.4,0.1-5.3,0.3-7.7c0.2-3.9,0.5-7.9,0.8-11.8h0c0-1.3,0.3-2.6,0.9-3.7c0.7-1.2,1.9-1.9,3.3-2.1c3.2-0.5,6.5,0,9.5,1.3
	c3.6,1.3,6.7,3.6,9,6.6c1.5,2.1,2.5,4.5,3,7.1c0.9,5.6,0.1,11.4-2.3,16.6c-2.7,5.1-7.5,8.8-13.2,10.1c-2.7,0.6-5.4,0.9-8.2,0.9
	c-3.4,0-16.5-1.6-19.4-8.4c-0.3-0.7-0.3-1-0.7-1c-0.3,0-0.4,0.4-0.5,1c-0.2,1.6-0.7,3.1-1.4,4.5c-0.7,1.2-1.7,4-11.7,3.8
	c-7-0.1-9.9-0.2-12.6-1.8c-1-0.8-1.5-2-1.4-3.3c0-0.4,0.7-13.5,0.8-15.1c0.1-0.5,0.1-0.9-0.1-1c-0.3-0.1-0.5,0.1-0.8,0.5
	c-1.3,1.1-3.5,2.9-4.9,4.2c-0.6,0.5-0.8,0.6-1,1c-0.2,0.4-0.3,0.8-0.3,1.2c-0.2,4.2-0.7,13.1-0.7,13.1l-0.1,0.1
	c-1.7,0.9-3.5,1.4-5.4,1.5c-3.2,0.2-6.4-0.4-9.2-1.9c-1-0.6-1.6-1.5-1.9-2.6c-0.3-1.3-0.1-2.6,0.6-3.8c0.9-1.5,5.3-7.7,5.3-7.7
	c0.4-0.7,0.4-0.9,0.4-1.2c-0.1-0.4-0.4-0.7-0.7-0.9c-0.5-0.5-1.6-1.1-2.7-1.8c0,0-0.8-0.5-1-0.6c-0.3-0.3-0.8-0.2-1,0.1c0,0,0,0,0,0
	c-3.6,4.5-5.5,10.1-5.4,15.8c0,3.6,1.4,7,3.9,9.5c3.2,2.8,7.4,4.2,11.7,3.8c2.8-0.1,5.6-1.3,7.7-3.2l0.2-0.2l0.2,0.2
	c0.5,0.6,1,1.1,1.7,1.4c4,2.2,13.1,2.3,17.9,2.2c10.3-0.1,13.5-3.2,14.4-6c0.5,1,1.2,1.8,2.1,2.6c3.9,3.5,11.9,4.1,16.4,4.1
	c5.7,0.2,11.3-0.6,16.8-2.3c4.6-1.7,8.6-4.6,11.6-8.5c4.1-5.8,6.2-12.8,5.9-19.9C237.9,395.1,236,388.7,232.2,383.4"/>
<path class="st0" d="M70.8,418.3L70.8,418.3c-2.2-1.1-4.2-2.6-6-4.3c-1.4-1.6-2.5-3.1,0-5.4c1.1-0.8,2.4-1.5,3.7-1.9
	C69.2,410.8,70.8,418.3,70.8,418.3 M88.1,413c2-2.7,2.2-6.4,0.5-9.4c-2.2-4.7-6.7-7.1-13.5-6.5c-1.5-6.6-6.3-26.2-6.3-26.5
	c-0.1-0.6-0.5-1.2-1-1.6c-0.6-0.3-1.2-0.4-1.9-0.4c-1.4-0.1-2.8,0.3-4,1.1c-1.1,1-1.9,2.2-2.4,3.6c-1.2,2.8-3.2,7.3-5.8,12.9
	c-1.8,3.7-3.8,8-6,12.8c-2.8,5.9-10,19.8-10.7,21.1c-0.5,1-1.3,1.8-2.2,2.3c-1.6,0.7-3.3,0.8-4.9,0.2c-1.7-0.6-3-2.1-3.5-3.8
	c-0.2-0.8-0.3-1.6-0.2-2.4c0.2-1.7,1-3.2,2.2-4.4c0.2-0.1,0.3-0.2,0.3-0.4c0-0.1-0.2-0.1-0.4-0.1c-3.3,1-5.7,3.9-6.2,7.3
	c0,0.3,0,0.5,0,0.7c0.2,3.9,2.3,7.4,5.7,9.3c1.9,1.1,9.4,4.1,13.8-0.5c2.2-2.6,4-5.6,5.3-8.7c2.2-4.4,7.4-15,8.3-16.9
	c0.9-1.8,5.9-12.2,8.4-17.2l0.4-0.7l2.9,14.2c-6.1,2.3-8.8,5.8-9.9,10.8c-1.3,5.3,3.7,13,16.3,18.9c2.5,1.1,5,2,7.7,2.7
	c1.9,0.2,2.1-0.6,2.2-1.1c0-1.2-0.2-2.3-0.6-3.5c-0.4-1.6-4-15.8-5.4-21.8c3.6-0.2,6.6,0.5,8.4,2.7c1.2,1.4,1.8,3.2,1.8,5.1
	c0,0.7,0,0.8,0.1,0.8C87.5,413.7,87.7,413.6,88.1,413"/>
<path class="st0" d="M137.7,395.2c0.8-0.9,2.3-2.5,3-3.3c0.2-0.2,0.3-0.3,0.4-0.3c0.2,0,0.3,0.1,0.5,0.3c1,0.8,2.7,2.2,3.3,2.7
	c1.1,1.1,1.8,2.6,1.9,4.2c0.1,0.6,0,1.1-0.1,1.7c-0.3,1.6-0.9,3.1-1.7,4.6c-0.1,0.2-0.2,0.5-0.4,0.4c-0.2-0.1-0.2-0.4-0.1-0.7
	c0-0.2,0-0.4,0-0.7c0-1.5-0.6-3-1.6-4.1c-1.5-1.4-3.2-2.7-4.9-3.9c-0.2-0.2-0.3-0.2-0.4-0.5C137.4,395.6,137.5,395.5,137.7,395.2"/>
<path class="st0" d="M286.2,411.2c0.1-0.2,0.1-0.4,0-0.6c-0.8-0.9-3.2-3.2-4-4c-0.1-0.2-0.4-0.2-0.5,0c0,0,0,0,0,0
	c-0.8,0.8-3.3,3.2-4.1,4c-0.1,0.2-0.1,0.4,0,0.6c0.9,0.8,3.2,3.2,4.1,4c0.1,0.2,0.4,0.2,0.5,0c0,0,0,0,0,0
	C283,414.3,285.3,412,286.2,411.2"/>
<path class="st1" d="M507.4,355.3c-2.9-3.1-12,1.3-17.9,8c-3.5,4.3-6.3,9.2-8.4,14.4c1.3-0.2,10.4-4.6,18.5-10.9
	C502.7,364.4,510.3,358.4,507.4,355.3 M503.2,452.7c-9.8,3.6-25.8,6.5-40.4,2.7c-2.5-0.7-4.9-1.5-7.3-2.5
	c17.1,15,33.7,21.5,44.1,15.7c13.5-7.5,25.6-20.3,34.4-35.9C525.3,442.7,513.2,449,503.2,452.7 M490,398.2c-3.1-0.7-7,9.2-3,10.1
	c0.6,0.1,1.1,0.1,1.7,0.1l0,0c2-0.1,3.9-0.5,5.8-1.2C494.1,401.3,492.6,398.7,490,398.2 M464.3,357.2c4.5,2.3,3.8,8.7,5.4,14.2
	c0.6,3.1,3.1,5.4,6.2,6c0,0,9.4-18.1,1.4-32.8c-8-14.7-21.2-9.6-24.6-8c-4.5,2.1-21.6,13.2-30.2,36.3c-8.5,23,3.8,30.8,11.3,32.1
	c7.5,1.3,19.2-6.3,19.6-10.3c0.2-2.1-1.3-3.4-3.6-3.9c-2.3-0.5-8.4,0.8-12.3-3.8c-4.8-5.7,3.5-18.4,8.1-22.9
	C450.3,359.6,457.4,353.6,464.3,357.2 M506.3,419.5c1.1-1.1,4.3-4.2,5.4-5.3c0.2-0.2,0.5-0.2,0.7,0c0,0,0,0,0,0
	c1.1,1.1,4.2,4.1,5.3,5.3c0.2,0.2,0.2,0.6,0,0.8c-1.1,1.1-4.2,4.2-5.3,5.3c-0.2,0.2-0.5,0.2-0.7,0c0,0,0,0,0,0
	c-1.1-1.1-4.2-4.2-5.4-5.3C506.1,420,506.1,419.7,506.3,419.5 M475.1,399.8c-1.1,1.1-4.2,4.2-5.3,5.3c-0.2,0.2-0.5,0.2-0.7,0
	c0,0,0,0,0,0c-1.1-1.1-4.2-4.2-5.4-5.3c-0.2-0.2-0.2-0.5,0-0.7c1.1-1.1,4.3-4.2,5.4-5.3c0.2-0.2,0.5-0.2,0.7,0c0,0,0,0,0,0
	c1.1,1.1,4.2,4.1,5.3,5.3C475.3,399.3,475.3,399.6,475.1,399.8 M507.2,334c-1.1,1.1-4.2,4.2-5.3,5.3c-0.2,0.2-0.5,0.2-0.7,0
	c0,0,0,0,0,0c-1.1-1.1-4.2-4.2-5.4-5.3c-0.2-0.2-0.2-0.5,0-0.7c1.1-1.1,4.3-4.2,5.4-5.3c0.2-0.2,0.5-0.2,0.7,0c0,0,0,0,0,0
	c1.1,1.1,4.2,4.1,5.3,5.3C507.3,333.4,507.3,333.7,507.2,334 M500.5,443.9c21.7-7.9,28.5-19.8,33.4-28.1
	c10.4-17.5,10.7-37.1,9.8-42.8l0-0.3c-0.6-4.8-1.9-9.5-3-9.6c-4.5-0.3-10.7,31.9-14.2,49.8c-0.2,1.9-0.8,3.8-1.6,5.5
	c-0.5,1-1.1,1.9-1.8,2.8c-0.6,0.7-1.6,1.4-1.4,0.1c8.2-43.3,13.4-66.6,18.2-75.9c0.3-0.8,0.9-1.5,1.7-1.9c-0.9-2.1-1.9-4.1-3-6.1
	c-25.6-46.4-93.7-57.9-131.7-36.9c-16.5,9.2-15,52.5,7.1,96.6c-2.1-12.3,0.7-23.3,6.9-36c8.3-17.1,34.7-42,54.5-34.3
	c17,6.5,10.4,33.2,10.4,33.2s11.8-15.7,21.2-16.2c5-0.3,13.4,3.4,3.2,20c-12,19.5-31.9,28.2-38.9,24.1c-6.1-3.6-6.3-10.5-6.7-12.4
	c-0.4-1.9-1.4-8.1-7.1-8.5c-5.7-0.5-16,7.5-14.7,11c1.1,3.1,8.7,0.6,12.2,2.8c3.5,2.2,4.8,5.5,3.6,11.2
	c-3.7,17.2-18.1,27.5-28.1,25.1c-2.4-0.6-4.7-1.5-6.8-2.7c3.1,4.9,6.3,9.6,9.6,14l3-5.1c0.1-0.2,0.3-0.3,0.4-0.2
	c5.7,0.1,11.3-1.5,16.1-4.7c-2.6,8.4-6,13.8-17.5,12.6c0.1,0.2,0.2,0.3,0.4,0.5c2.2,1.1,4.7,2.2,7.6,3.3c17.1,6.5,32.5-2.1,35.1-3.9
	c2.1-1.4,10.8-6.5,14.5-13.5c-1.5,0.2-2.9,0.3-4.4,0.2c-1.1-0.1-2.2-0.2-2.5-0.2c-1.7-0.1-10.7-1.5-4.9-15.1
	c1.1-2.4,5-11.8,10.6-9.8c3.9,1.3,6.7,4.7,7.3,8.8c0.2,1.1,0.4,2.2,0.5,3.3c5.4-3.1,9.2-8.3,10.5-14.4c1-5.6-0.3-8.4-1.9-8.7
	c-2.1-0.4-6,10.2-6.5,9.9c-0.6-0.3,0-1.8,0.5-3.4c3.7-12.4,9.1-17.1,10.9-17.1c1.8,0,4.2,5.7,4.3,13.3c0,12-7,25.8-18.1,31.1
	c-0.8,5-2.8,9.7-5.8,13.8c-10.6,12.8-27.5,18.4-43.6,14.5c-1.7-0.4-3.4-0.8-4.9-1.3c1.8,1.9,3.6,3.8,5.4,5.5c0.7,0.2,2,0.4,4.5,0.9
	C470.2,450.9,485.9,449.2,500.5,443.9"/>
</svg>
