<svg id="Ebene_1" data-name="Ebene 1" xmlns="http://www.w3.org/2000/svg" viewBox="0 0 31.7817 30.7805"><title>leaves-right</title><path d="M300.4067,419.3843c7.1519-4.044,11.65-10.5288,13.4009-13.419-3.3818.0132-11.27.524-18.4087,4.5572-7.1582,4.042-11.64,10.81-13.373,13.8154a42.5432,42.5432,0,0,0,18.3808-4.9536" transform="translate(-282.0259 -405.9653)" fill="#21b0e6"/><path d="M282.1187,425.7168a29.4494,29.4494,0,0,0,11.6035,9.17,30.1387,30.1387,0,0,0,14.5,1.5967,30.1361,30.1361,0,0,0-11.584-8.8643,32.6655,32.6655,0,0,0-14.5195-1.9023" transform="translate(-282.0259 -405.9653)" fill="#21b0e6"/></svg>